<?xml version="1.0" encoding="UTF-8"?>
<svg id="Layer_2" data-name="Layer 2" xmlns="http://www.w3.org/2000/svg" viewBox="0 0 129.33 138.44">
  <defs>
    <style>
      .cls-1 {
        letter-spacing: 0em;
      }

      .cls-2 {
        letter-spacing: 0em;
      }

      .cls-3 {
        letter-spacing: -.02em;
      }

      .cls-4 {
        fill: #fff;
        font-family: MyriadPro-Regular, 'Myriad Pro';
        font-size: 11px;
      }

      .cls-5 {
        letter-spacing: 0em;
      }

      .cls-6 {
        fill: #078c3c;
        stroke: #0bde5f;
        stroke-miterlimit: 10;
        stroke-width: 2px;
      }
    </style>
  </defs>
  <g id="txt">
    <g>
      <path class="cls-6" d="M81.48,20.07l9.92,31.7s21.08,34.3,23.64,35.95h4.22l8.76,11.9-4.79,4.79,3.31,3.8-1.96,4.79-4.08-.33,2.81,5.57-23.3,19.19h-.37s-.94-.69-.94-.69c-.24-.19-.46-.49-.78-.69-.16-.1-.07-.13-.48-.35-.11-.06-.16-.16-.63-.41-.3-.16-1-.57-1.19-.67,0,0-2.13,1.25-2.14,1.25-.64.36-1.29.71-1.96,1.02l-4.87-12.32-20.51-19.4-15.67,7.38-.53,3.85-5.32.07-2.08,3.52-4.58.26-6.64,2.07-2.44-16.78L1.2,89l8.76-27.12,4.87-17.99,2.67-3.35,5.06,5.81,10.5-8.68,6.14-.1,4.57-13.84,14.48-12.43,13.29-9.81c3.32,6.19,6.64,12.39,9.96,18.58"/>
      <text class="cls-4" transform="translate(29.38 52.72) rotate(35.94)"><tspan x="0" y="0">Si</tspan><tspan class="cls-5" x="8" y="0">n</tspan><tspan class="cls-1" x="14.06" y="0">t</tspan><tspan class="cls-3" x="17.64" y="0">-</tspan><tspan x="20.8" y="0">Joos</tspan><tspan class="cls-1" x="41.3" y="0">t</tspan><tspan x="44.89" y="0">-</tspan><tspan class="cls-2" x="48.27" y="0">t</tspan><tspan x="51.84" y="0">en-Noode</tspan></text>
    </g>
  </g>
</svg>